<?xml version="1.0" encoding="UTF-8" standalone="no"?> <svg width="512" height="512" viewBox="0 0 512 512" fill="none" xmlns="http://www.w3.org/2000/svg">
<path d="M152 320.701H200V416.701H152V320.701ZM352 336.701H344C341.878 336.701 339.844 337.543 338.343 339.044C336.843 340.544 336 342.579 336 344.701C336 346.822 336.843 348.857 338.343 350.357C339.844 351.858 341.878 352.701 344 352.701C346.122 352.701 348.157 353.543 349.657 355.044C351.157 356.544 352 358.579 352 360.701C352 362.822 351.157 364.857 349.657 366.357C348.157 367.858 346.122 368.701 344 368.701C341.878 368.701 339.844 369.543 338.343 371.044C336.843 372.544 336 374.579 336 376.701C336 378.822 336.843 380.857 338.343 382.357C339.844 383.858 341.878 384.701 344 384.701C346.122 384.701 348.157 385.543 349.657 387.044C351.157 388.544 352 390.579 352 392.701C352 394.822 351.157 396.857 349.657 398.357C348.157 399.858 346.122 400.701 344 400.701C341.878 400.701 339.844 401.543 338.343 403.044C336.843 404.544 336 406.579 336 408.701C336 410.822 336.843 412.857 338.343 414.357C339.844 415.858 341.878 416.701 344 416.701C346.122 416.701 348.157 417.543 349.657 419.044C351.157 420.544 352 422.579 352 424.701C352 426.822 351.157 428.857 349.657 430.357C348.157 431.858 346.122 432.701 344 432.701H252.128C240.581 432.711 229.292 429.293 219.69 422.88L216 420.419V317.455C225.909 311.654 234.38 303.691 240.783 294.16C247.186 284.63 251.355 273.777 252.979 262.411L254.938 248.696H264C268.242 248.701 272.309 250.388 275.308 253.387C278.308 256.387 279.995 260.454 280 264.696V312.696C280 314.817 280.843 316.852 282.343 318.352C283.844 319.853 285.878 320.696 288 320.696H352C354.122 320.696 356.157 321.538 357.657 323.039C359.157 324.539 360 326.574 360 328.696C360 330.817 359.157 332.852 357.657 334.352C356.157 335.853 354.122 336.695 352 336.695V336.701ZM250.092 84.2925L239.736 116.166H206.224C204.912 116.166 203.634 116.581 202.573 117.352C201.512 118.123 200.722 119.21 200.316 120.457C199.911 121.705 199.911 123.049 200.316 124.296C200.721 125.544 201.511 126.631 202.572 127.403L229.685 147.103L219.329 178.976C218.923 180.223 218.923 181.567 219.329 182.815C219.734 184.063 220.524 185.15 221.585 185.921C222.647 186.692 223.925 187.107 225.237 187.107C226.549 187.107 227.827 186.691 228.888 185.92L256 166.219L283.112 185.92C284.173 186.691 285.451 187.107 286.763 187.107C288.075 187.107 289.353 186.692 290.415 185.921C291.476 185.15 292.266 184.063 292.672 182.815C293.077 181.567 293.077 180.223 292.671 178.976L282.315 147.101L309.428 127.401C310.489 126.629 311.279 125.542 311.684 124.294C312.089 123.047 312.089 121.703 311.684 120.455C311.278 119.208 310.488 118.121 309.427 117.35C308.366 116.579 307.088 116.164 305.776 116.164H272.264L261.908 84.2925C261.503 83.0448 260.713 81.9575 259.651 81.1864C258.59 80.4153 257.312 80 256 80C254.688 80 253.41 80.4153 252.349 81.1864C251.287 81.9575 250.497 83.0448 250.092 84.2925V84.2925ZM127.682 142.533L119.482 167.782H92.9301C91.8915 167.782 90.8798 168.112 90.0397 168.722C89.1997 169.333 88.5745 170.194 88.2535 171.182C87.9325 172.169 87.9323 173.233 88.2529 174.221C88.5734 175.209 89.1983 176.07 90.0381 176.682L111.516 192.282L103.316 217.531C102.996 218.519 102.996 219.583 103.318 220.571C103.639 221.558 104.265 222.419 105.105 223.03C105.946 223.64 106.958 223.969 107.997 223.969C109.035 223.969 110.047 223.641 110.888 223.031L132.366 207.426L153.844 223.031C154.685 223.641 155.697 223.97 156.736 223.97C157.775 223.97 158.787 223.641 159.628 223.031C160.469 222.42 161.095 221.559 161.416 220.571C161.737 219.583 161.738 218.519 161.417 217.531L153.217 192.282L174.695 176.682C175.535 176.07 176.16 175.209 176.48 174.221C176.801 173.233 176.801 172.169 176.48 171.181C176.159 170.193 175.533 169.333 174.693 168.722C173.853 168.111 172.841 167.782 171.802 167.782H145.246L137.046 142.533C136.726 141.543 136.1 140.68 135.259 140.068C134.418 139.456 133.404 139.126 132.364 139.126C131.324 139.126 130.31 139.456 129.469 140.068C128.628 140.68 128.002 141.543 127.682 142.533V142.533ZM62.9581 246.533L54.7581 271.782H28.2061C27.1674 271.782 26.1555 272.111 25.3154 272.722C24.4752 273.333 23.8497 274.193 23.5286 275.181C23.2075 276.169 23.2072 277.233 23.5278 278.221C23.8483 279.209 24.4733 280.07 25.3131 280.682L46.7911 296.282L38.5911 321.531C38.2705 322.519 38.2709 323.583 38.5923 324.571C38.9136 325.559 39.5395 326.42 40.3802 327.031C41.2208 327.641 42.2332 327.97 43.2722 327.97C44.3112 327.97 45.3235 327.641 46.1641 327.031L67.6421 311.425L89.1201 327.031C89.9608 327.641 90.9729 327.969 92.0117 327.969C93.0505 327.969 94.0626 327.64 94.903 327.03C95.7435 326.419 96.3692 325.558 96.6906 324.571C97.0119 323.583 97.0125 322.519 96.6921 321.531L88.4921 296.282L109.97 280.682C110.81 280.07 111.435 279.209 111.755 278.221C112.076 277.233 112.076 276.169 111.755 275.182C111.434 274.194 110.809 273.333 109.968 272.722C109.128 272.112 108.117 271.782 107.078 271.782H80.5221L72.3221 246.533C72.0019 245.543 71.3762 244.68 70.535 244.068C69.6938 243.456 68.6804 243.126 67.6401 243.126C66.5999 243.126 65.5864 243.456 64.7452 244.068C63.904 244.68 63.2784 245.543 62.9581 246.533V246.533ZM438.958 246.533L430.758 271.782H404.206C403.167 271.782 402.156 272.111 401.315 272.722C400.475 273.333 399.85 274.193 399.529 275.181C399.208 276.169 399.207 277.233 399.528 278.221C399.848 279.209 400.473 280.07 401.313 280.682L422.791 296.282L414.591 321.531C414.27 322.519 414.271 323.583 414.592 324.571C414.914 325.559 415.54 326.42 416.38 327.031C417.221 327.641 418.233 327.97 419.272 327.97C420.311 327.97 421.324 327.641 422.164 327.031L443.642 311.425L465.12 327.031C465.961 327.641 466.973 327.969 468.012 327.969C469.05 327.969 470.063 327.64 470.903 327.03C471.743 326.419 472.369 325.558 472.691 324.571C473.012 323.583 473.012 322.519 472.692 321.531L464.492 296.282L485.97 280.682C486.81 280.07 487.435 279.209 487.755 278.221C488.076 277.233 488.076 276.169 487.755 275.182C487.434 274.194 486.809 273.333 485.969 272.722C485.128 272.112 484.117 271.782 483.078 271.782H456.522L448.322 246.533C448.002 245.543 447.376 244.68 446.535 244.068C445.694 243.456 444.68 243.126 443.64 243.126C442.6 243.126 441.586 243.456 440.745 244.068C439.904 244.68 439.278 245.543 438.958 246.533V246.533ZM374.958 142.533L366.758 167.782H340.206C339.167 167.782 338.156 168.111 337.315 168.722C336.475 169.333 335.85 170.193 335.529 171.181C335.208 172.169 335.207 173.233 335.528 174.221C335.848 175.209 336.473 176.07 337.313 176.682L358.791 192.282L350.591 217.531C350.27 218.519 350.271 219.583 350.592 220.571C350.914 221.559 351.54 222.42 352.38 223.031C353.221 223.641 354.233 223.97 355.272 223.97C356.311 223.97 357.324 223.641 358.164 223.031L379.642 207.426L401.12 223.031C401.961 223.641 402.973 223.969 404.012 223.969C405.05 223.969 406.063 223.64 406.903 223.03C407.743 222.419 408.369 221.558 408.691 220.571C409.012 219.583 409.012 218.519 408.692 217.531L400.492 192.282L421.97 176.682C422.81 176.07 423.435 175.209 423.755 174.221C424.076 173.233 424.076 172.169 423.755 171.182C423.434 170.194 422.809 169.333 421.969 168.722C421.128 168.112 420.117 167.782 419.078 167.782H392.522L384.322 142.533C384.002 141.543 383.376 140.68 382.535 140.068C381.694 139.456 380.68 139.126 379.64 139.126C378.6 139.126 377.586 139.456 376.745 140.068C375.904 140.68 375.278 141.543 374.958 142.533V142.533Z" fill="url(#paint0_linear_6_16840)"/>
<defs>
<linearGradient id="paint0_linear_6_16840" x1="120.793" y1="407.545" x2="390.845" y2="137.493" gradientUnits="userSpaceOnUse">
<stop stop-color="white"/>
<stop offset="0.03" stop-color="#41DFD0"/>
<stop offset="1" stop-color="#EE83EF"/>
</linearGradient>
</defs>
</svg>
