<?xml version="1.0" encoding="iso-8859-1"?>
<!-- Generator: Adobe Illustrator 19.0.0, SVG Export Plug-In . SVG Version: 6.00 Build 0)  -->
<svg version="1.1" id="Layer_1" xmlns="http://www.w3.org/2000/svg" xmlns:xlink="http://www.w3.org/1999/xlink" x="0px" y="0px"
	 viewBox="0 0 512 512" style="enable-background:new 0 0 512 512;" xml:space="preserve">
<circle style="fill:#FEE187;" cx="256" cy="256" r="256"/>
<path style="fill:#FFC61B;" d="M511.991,256.727L381.538,126.276l-5.675-2.093l-21.282-23.755l-40.181,137.564l-75.085-75.083
	l-4.641-3.241l-21.94-21.94l-78.426,269.226l104.455,104.455C244.462,511.788,250.206,512,256,512
	C397.141,512,511.597,397.777,511.991,256.727z"/>
<path style="fill:#494949;" d="M162.263,162.909h45.253c3.213,0,5.818-2.605,5.818-5.818v-16.808c0-3.213-2.605-5.818-5.818-5.818
	h-45.253c-3.213,0-5.818,2.605-5.818,5.818v16.808C156.444,160.304,159.049,162.909,162.263,162.909z"/>
<path style="fill:#383838;" d="M207.515,134.465h-24.493v28.444h24.493c3.213,0,5.818-2.605,5.818-5.818v-16.808
	C213.333,137.069,210.729,134.465,207.515,134.465z"/>
<path style="fill:#274051;" d="M224.825,410.721h-79.874c-9.363,0-16.953-7.59-16.953-16.951V171.673
	c0-9.363,7.59-16.953,16.953-16.953h79.874c9.363,0,16.951,7.59,16.951,16.953v222.096
	C241.778,403.13,234.187,410.721,224.825,410.721z"/>
<path style="fill:#223849;" d="M224.825,154.721H183.02v256h41.805c9.363,0,16.951-7.59,16.951-16.951V171.672
	C241.778,162.311,234.187,154.721,224.825,154.721z"/>
<path style="fill:#F26033;" d="M241.778,171.672c0-9.363-7.59-16.951-16.951-16.951h-79.875c-9.363,0-16.951,7.59-16.951,16.951
	V245.8h113.778V171.672z"/>
<path style="fill:#D14620;" d="M241.778,171.672c0-9.363-7.59-16.951-16.951-16.951h-41.805V245.8h58.756V171.672z"/>
<path style="fill:#494949;" d="M304.485,126.276h45.253c3.213,0,5.818-2.605,5.818-5.818V103.65c0-3.213-2.605-5.818-5.818-5.818
	h-45.253c-3.213,0-5.818,2.605-5.818,5.818v16.808C298.667,123.671,301.271,126.276,304.485,126.276z"/>
<path style="fill:#383838;" d="M349.737,97.832h-23.631v28.444h23.631c3.213,0,5.818-2.605,5.818-5.818V103.65
	C355.556,100.436,352.951,97.832,349.737,97.832z"/>
<path style="fill:#274051;" d="M367.047,374.088h-79.874c-9.363,0-16.951-7.59-16.951-16.951V135.04
	c0-9.363,7.59-16.953,16.951-16.953h79.874c9.363,0,16.951,7.59,16.951,16.953v222.096C384,366.497,376.41,374.088,367.047,374.088z
	"/>
<path style="fill:#223849;" d="M367.047,118.088h-40.943v256h40.943c9.363,0,16.951-7.59,16.951-16.951V135.039
	C384,125.678,376.41,118.088,367.047,118.088z"/>
<path style="fill:#F26033;" d="M384,135.039c0-9.363-7.59-16.951-16.951-16.951h-79.874c-9.363,0-16.951,7.59-16.951,16.951v74.128
	h113.778v-74.128H384z"/>
<path style="fill:#D14620;" d="M384,135.039c0-9.363-7.59-16.951-16.951-16.951h-40.943v91.079H384V135.039z"/>
<g>
	<path style="fill:#FFEDB5;" d="M200.404,359.865h-31.03c-3.332,0-6.034-2.701-6.034-6.034s2.701-6.034,6.034-6.034h31.03
		c3.332,0,6.034,2.701,6.034,6.034S203.736,359.865,200.404,359.865z"/>
	<path style="fill:#FFEDB5;" d="M200.404,197.818h-9.481v-9.481c0-3.332-2.701-6.034-6.034-6.034s-6.034,2.701-6.034,6.034v9.481
		h-9.481c-3.332,0-6.034,2.701-6.034,6.034s2.701,6.034,6.034,6.034h9.481v9.481c0,3.332,2.701,6.034,6.034,6.034
		s6.034-2.701,6.034-6.034v-9.481h9.481c3.332,0,6.034-2.701,6.034-6.034S203.736,197.818,200.404,197.818z"/>
	<path style="fill:#FFEDB5;" d="M342.626,326.249h-31.03c-3.332,0-6.034-2.701-6.034-6.034s2.701-6.034,6.034-6.034h31.03
		c3.332,0,6.034,2.701,6.034,6.034S345.959,326.249,342.626,326.249z"/>
	<path style="fill:#FFEDB5;" d="M342.626,164.202h-9.481v-9.481c0-3.332-2.701-6.034-6.034-6.034s-6.034,2.701-6.034,6.034v9.481
		h-9.481c-3.332,0-6.034,2.701-6.034,6.034s2.701,6.034,6.034,6.034h9.481v9.481c0,3.332,2.701,6.034,6.034,6.034
		s6.034-2.701,6.034-6.034v-9.481h9.481c3.332,0,6.034-2.701,6.034-6.034S345.959,164.202,342.626,164.202z"/>
</g>
<g>
</g>
<g>
</g>
<g>
</g>
<g>
</g>
<g>
</g>
<g>
</g>
<g>
</g>
<g>
</g>
<g>
</g>
<g>
</g>
<g>
</g>
<g>
</g>
<g>
</g>
<g>
</g>
<g>
</g>
</svg>
