<?xml version="1.0" encoding="iso-8859-1"?>
<!-- Generator: Adobe Illustrator 19.0.0, SVG Export Plug-In . SVG Version: 6.00 Build 0)  -->
<svg version="1.1" id="Layer_1" xmlns="http://www.w3.org/2000/svg" xmlns:xlink="http://www.w3.org/1999/xlink" x="0px" y="0px"
	 viewBox="0 0 512 512" style="enable-background:new 0 0 512 512;" xml:space="preserve">
<path style="fill:#C3DEDD;" d="M116.342,421.1v33.758c0,31.429,25.713,57.141,57.153,57.141h165.01
	c31.429,0,57.153-25.713,57.153-57.141V421.1L256,398.595L116.342,421.1z"/>
<rect x="194.92" style="fill:#C4C4C4;" width="122.149" height="96.976"/>
<g>
	<path style="fill:#62B3B1;" d="M267.918,0.003V51.97c0,4.661,3.779,8.44,8.44,8.44s8.44-3.779,8.44-8.44V0.003H267.918z"/>
	<path style="fill:#62B3B1;" d="M227.201,0.003V51.97c0,4.661,3.779,8.44,8.44,8.44c4.661,0,8.44-3.779,8.44-8.44V0.003H227.201z"/>
</g>
<path style="fill:#C3DEDD;" d="M371.543,120.393l-54.475-34.67H194.92l-54.475,34.67c-13.256,8.44-24.103,28.199-24.103,43.919
	v33.758L256,220.576l139.658-22.506v-33.758C395.658,148.593,384.81,128.833,371.543,120.393z"/>
<polygon style="fill:#62B3B1;" points="116.342,198.071 116.342,421.1 328.138,421.1 350.643,309.586 328.138,198.071 "/>
<rect x="328.141" y="198.071" style="fill:#F75E5D;" width="67.516" height="223.029"/>
<path style="fill:#566955;" d="M278.86,285.358c-3.746-2.77-9.031-1.982-11.804,1.767l-19.016,25.71l-19.015-25.71
	c-1.591-2.152-4.108-3.421-6.785-3.421c-2.676,0-5.194,1.269-6.785,3.421l-19.016,25.709l-19.015-25.709
	c-2.772-3.748-8.057-4.539-11.804-1.767c-3.747,2.772-4.538,8.056-1.767,11.804l25.8,34.884c1.591,2.151,4.108,3.421,6.785,3.421
	c2.676,0,5.194-1.269,6.785-3.421l19.016-25.709l19.015,25.709c1.591,2.151,4.108,3.421,6.785,3.421
	c2.676,0,5.194-1.269,6.785-3.421l25.801-34.884C283.398,293.415,282.607,288.13,278.86,285.358z"/>
<g>
</g>
<g>
</g>
<g>
</g>
<g>
</g>
<g>
</g>
<g>
</g>
<g>
</g>
<g>
</g>
<g>
</g>
<g>
</g>
<g>
</g>
<g>
</g>
<g>
</g>
<g>
</g>
<g>
</g>
</svg>
