<?xml version="1.0" encoding="iso-8859-1"?>
<!-- Uploaded to: SVG Repo, www.svgrepo.com, Generator: SVG Repo Mixer Tools -->
<svg height="800px" width="800px" version="1.1" id="Layer_1" xmlns="http://www.w3.org/2000/svg" xmlns:xlink="http://www.w3.org/1999/xlink" 
	 viewBox="0 0 512 512" xml:space="preserve">
<circle style="fill:#B5F1F4;" cx="256" cy="256" r="256"/>
<path style="fill:#84DBFF;" d="M425.934,321.352L257.724,153.14l-6.092,164.231L87.607,331.293L268.024,511.71
	c93.22-4.311,173.409-58.478,214.538-136.454l-54.905-54.905L425.934,321.352z"/>
<ellipse style="fill:#FFFFFF;" cx="257.724" cy="325.956" rx="171.908" ry="36.84"/>
<path style="fill:#D0D1D3;" d="M429.639,325.961c0-20.346-76.969-36.84-171.915-36.84v73.678
	C352.67,362.801,429.639,346.309,429.639,325.961z"/>
<ellipse style="fill:#E6F3FF;" cx="257.724" cy="325.956" rx="138.895" ry="29.763"/>
<path style="fill:#CFDBE6;" d="M396.616,325.963c0-16.437-62.183-29.763-138.892-29.763v59.525
	C334.433,355.724,396.616,342.4,396.616,325.963z"/>
<ellipse style="fill:#FFFFFF;" cx="257.724" cy="325.956" rx="84.506" ry="18.108"/>
<path style="fill:#D0D1D3;" d="M342.225,325.961c0-10-37.831-18.106-84.501-18.106v36.214
	C304.393,344.069,342.225,335.962,342.225,325.961z"/>
<path style="fill:#31BAFD;" d="M200.835,254.85c0-31.418,56.889-101.71,56.889-101.71s56.889,70.292,56.889,101.71
	s-25.471,56.889-56.889,56.889S200.835,286.27,200.835,254.85z"/>
<path style="fill:#2B9ED8;" d="M314.613,254.85c0-31.411-56.861-101.676-56.889-101.71v158.599
	C289.144,311.739,314.613,286.27,314.613,254.85z"/>
</svg>