<?xml version="1.0" encoding="iso-8859-1"?>
<!-- Generator: Adobe Illustrator 19.1.0, SVG Export Plug-In . SVG Version: 6.00 Build 0)  -->
<svg version="1.1" id="Capa_1" xmlns="http://www.w3.org/2000/svg" xmlns:xlink="http://www.w3.org/1999/xlink" x="0px" y="0px"
	 viewBox="0 0 348.399 348.399" style="enable-background:new 0 0 348.399 348.399;" xml:space="preserve">
<g>
	<path style="fill:#FFFFFF;" d="M119.251,156.239c1.477,0,2.902,0.225,4.244,0.643c-1.813-5.837-7.264-10.088-13.689-10.088
		c-7.903,0-14.332,6.43-14.332,14.332c0,6.426,4.25,11.875,10.087,13.689c-0.417-1.342-0.642-2.768-0.642-4.244
		C104.919,162.669,111.348,156.239,119.251,156.239z"/>
	<path style="fill:#FFFFFF;" d="M119.251,112.578c1.477,0,2.902,0.225,4.244,0.643c-1.813-5.837-7.264-10.088-13.689-10.088
		c-7.903,0-14.332,6.43-14.332,14.332c0,6.426,4.25,11.875,10.087,13.689c-0.417-1.342-0.642-2.768-0.642-4.244
		C104.919,119.008,111.348,112.578,119.251,112.578z"/>
	<path style="fill:#FFFFFF;" d="M119.806,200.457c10.109,0,19.46,3.292,27.052,8.851c-8.358-11.417-21.851-18.851-37.052-18.851
		c-25.312,0-45.904,20.593-45.904,45.905c0,15.201,7.433,28.692,18.85,37.052c-5.558-7.593-8.85-16.943-8.85-27.052
		C73.901,221.05,94.494,200.457,119.806,200.457z"/>
	<path style="fill:#BA82AA;" d="M119.806,200.457c-25.312,0-45.904,20.593-45.904,45.905c0,10.107,3.292,19.458,8.85,27.051
		c7.593,5.559,16.945,8.852,27.055,8.852c25.311,0,45.903-20.592,45.903-45.902c0-10.11-3.292-19.462-8.851-27.055l0,0
		C139.266,203.749,129.915,200.457,119.806,200.457z"/>
	<path style="fill:#FFA6BB;" d="M119.251,112.578c-7.903,0-14.332,6.43-14.332,14.332c0,1.475,0.225,2.9,0.641,4.241
		c1.342,0.417,2.768,0.643,4.246,0.643c7.902,0,14.331-6.43,14.331-14.332c0-1.476-0.225-2.9-0.641-4.24
		c-0.001-0.001-0.001-0.001-0.001-0.001C122.153,112.803,120.728,112.578,119.251,112.578z"/>
	<path style="fill:#FFA6BB;" d="M119.251,156.239c-7.903,0-14.332,6.43-14.332,14.332c0,1.477,0.225,2.902,0.642,4.244
		c1.342,0.416,2.768,0.642,4.245,0.642c7.902,0,14.331-6.429,14.331-14.331c0-1.477-0.225-2.902-0.642-4.244l0,0
		C122.153,156.464,120.728,156.239,119.251,156.239z"/>
	<path style="fill:#7F3960;" d="M132.392,179.817c4.21-5.079,6.745-11.595,6.745-18.691c0-8.663-3.777-16.458-9.769-21.832
		c5.992-5.374,9.769-13.169,9.769-21.832c0-13.581-9.28-25.032-21.831-28.355v-21.43c0-10.482-8.329-19.031-18.713-19.44
		C98.34,48.211,81.226,48.22,81.226,31.6c0-9.153,7.446-16.6,16.649-16.6h0.001c0.108,0,8.396,0.181,12.236,5.257
		c7.368,9.744,17.809,11.454,27.247,4.46c3.329-2.465,4.028-7.162,1.563-10.49c-2.467-3.328-7.162-4.028-10.491-1.562
		c-2.274,1.684-3.495,2.327-6.355-1.454C113.757,0.211,99.366,0.008,97.824,0C80.401,0,66.226,14.176,66.226,31.6
		s14.175,31.599,31.599,31.599c2.471,0,4.482,2.009,4.482,4.479v21.43c-12.552,3.323-21.832,14.774-21.832,28.355
		c0,8.663,3.778,16.458,9.769,21.832c-5.991,5.374-9.769,13.169-9.769,21.832c0,7.097,2.535,13.612,6.746,18.691
		c-22.429,8.992-38.318,30.941-38.318,56.545c0,33.582,27.322,60.902,60.904,60.902c33.582,0,60.903-27.32,60.903-60.902
		C170.709,210.759,154.82,188.81,132.392,179.817z M109.777,103.133c0.01,0,0.019,0.001,0.029,0.001c0.01,0,0.019-0.001,0.029-0.001
		c6.414,0.013,11.852,4.259,13.662,10.089c0.416,1.34,0.641,2.765,0.641,4.24c0,7.902-6.429,14.332-14.331,14.332
		c-1.478,0-2.903-0.226-4.246-0.643c-5.837-1.813-10.087-7.265-10.087-13.689C95.474,109.569,101.887,103.148,109.777,103.133z
		 M109.806,146.794c6.425,0,11.876,4.251,13.689,10.088c0.417,1.342,0.642,2.768,0.642,4.244c0,7.902-6.429,14.331-14.331,14.331
		c-1.477,0-2.903-0.225-4.245-0.642c-5.837-1.814-10.087-7.264-10.087-13.689C95.474,153.224,101.903,146.794,109.806,146.794z
		 M109.806,282.265c-10.11,0-19.462-3.293-27.055-8.852c-11.416-8.358-18.85-21.85-18.85-37.051
		c0-25.312,20.593-45.905,45.904-45.905c15.202,0,28.694,7.434,37.052,18.851c5.559,7.593,8.851,16.944,8.851,27.055
		C155.709,261.673,135.117,282.265,109.806,282.265z"/>
</g>
<g>
	<path style="fill:#FFFFFF;" d="M248.04,207.374c1.477,0,2.902,0.225,4.244,0.643c-1.813-5.837-7.264-10.088-13.689-10.088
		c-7.903,0-14.332,6.43-14.332,14.332c0,6.426,4.25,11.875,10.087,13.689c-0.417-1.342-0.642-2.768-0.642-4.244
		C233.708,213.804,240.137,207.374,248.04,207.374z"/>
	<path style="fill:#FFFFFF;" d="M248.04,163.713c1.477,0,2.902,0.225,4.244,0.643c-1.813-5.837-7.264-10.088-13.689-10.088
		c-7.903,0-14.332,6.43-14.332,14.332c0,6.426,4.25,11.875,10.087,13.689c-0.417-1.342-0.642-2.768-0.642-4.244
		C233.708,170.143,240.137,163.713,248.04,163.713z"/>
	<path style="fill:#FFFFFF;" d="M248.595,251.592c10.109,0,19.46,3.292,27.052,8.851c-8.358-11.417-21.851-18.851-37.052-18.851
		c-25.312,0-45.904,20.593-45.904,45.905c0,15.201,7.433,28.692,18.85,37.052c-5.558-7.593-8.85-16.943-8.85-27.052
		C202.69,272.185,223.283,251.592,248.595,251.592z"/>
	<path style="fill:#BA82AA;" d="M248.595,251.592c-25.312,0-45.904,20.593-45.904,45.905c0,10.107,3.292,19.458,8.85,27.051
		c7.593,5.559,16.945,8.852,27.055,8.852c25.311,0,45.903-20.592,45.903-45.902c0-10.11-3.292-19.462-8.851-27.055l0,0
		C268.055,254.884,258.704,251.592,248.595,251.592z"/>
	<path style="fill:#FFA6BB;" d="M248.04,163.713c-7.903,0-14.332,6.43-14.332,14.332c0,1.476,0.225,2.9,0.641,4.241
		c1.342,0.417,2.768,0.643,4.246,0.643c7.902,0,14.332-6.43,14.332-14.332c0-1.476-0.225-2.9-0.641-4.24c0-0.001,0-0.001,0-0.001
		C250.942,163.938,249.517,163.713,248.04,163.713z"/>
	<path style="fill:#FFA6BB;" d="M248.04,207.374c-7.903,0-14.332,6.43-14.332,14.332c0,1.477,0.225,2.902,0.642,4.244
		c1.342,0.416,2.768,0.642,4.245,0.642c7.902,0,14.332-6.429,14.332-14.331c0-1.477-0.225-2.902-0.642-4.244l0,0
		C250.942,207.599,249.517,207.374,248.04,207.374z"/>
	<path style="fill:#7F3960;" d="M261.181,230.952c4.211-5.079,6.745-11.595,6.745-18.691c0-8.663-3.777-16.458-9.769-21.832
		c5.992-5.374,9.769-13.169,9.769-21.832c0-13.581-9.28-25.032-21.832-28.355v-21.43c0-10.481-8.329-19.031-18.713-19.439
		c-0.253-0.026-17.367-0.018-17.367-16.638c0-9.153,7.446-16.6,16.649-16.6h0c0.108,0,8.396,0.181,12.236,5.257
		c7.368,9.744,17.809,11.454,27.247,4.46c3.329-2.465,4.028-7.162,1.563-10.49c-2.467-3.328-7.162-4.028-10.491-1.562
		c-2.274,1.684-3.495,2.327-6.355-1.454c-8.318-10.999-22.709-11.202-24.251-11.21c-17.423,0-31.599,14.176-31.599,31.6
		s14.175,31.599,31.599,31.599c2.471,0,4.481,2.009,4.481,4.479v21.43c-12.552,3.323-21.832,14.774-21.832,28.355
		c0,8.663,3.778,16.458,9.769,21.832c-5.991,5.374-9.769,13.169-9.769,21.832c0,7.097,2.535,13.612,6.746,18.691
		c-22.429,8.992-38.318,30.941-38.318,56.545c0,33.582,27.322,60.902,60.904,60.902c33.582,0,60.903-27.32,60.903-60.902
		C299.498,261.894,283.609,239.944,261.181,230.952z M238.566,154.268c0.01,0,0.019,0.001,0.029,0.001
		c0.01,0,0.019-0.001,0.029-0.001c6.414,0.013,11.852,4.259,13.662,10.089c0.417,1.34,0.641,2.765,0.641,4.24
		c0,7.902-6.429,14.332-14.332,14.332c-1.478,0-2.903-0.226-4.246-0.643c-5.836-1.813-10.086-7.265-10.086-13.689
		C224.263,160.704,230.676,154.283,238.566,154.268z M238.595,197.929c6.425,0,11.876,4.251,13.689,10.088
		c0.417,1.342,0.642,2.768,0.642,4.244c0,7.902-6.429,14.331-14.332,14.331c-1.477,0-2.903-0.226-4.245-0.642
		c-5.837-1.814-10.087-7.264-10.087-13.689C224.263,204.358,230.692,197.929,238.595,197.929z M238.595,333.399
		c-10.11,0-19.462-3.293-27.055-8.852c-11.416-8.358-18.85-21.85-18.85-37.051c0-25.312,20.593-45.905,45.904-45.905
		c15.202,0,28.694,7.434,37.052,18.851c5.559,7.593,8.851,16.944,8.851,27.055C284.498,312.808,263.906,333.399,238.595,333.399z"/>
</g>
<g>
</g>
<g>
</g>
<g>
</g>
<g>
</g>
<g>
</g>
<g>
</g>
<g>
</g>
<g>
</g>
<g>
</g>
<g>
</g>
<g>
</g>
<g>
</g>
<g>
</g>
<g>
</g>
<g>
</g>
</svg>
