<?xml version="1.0" encoding="iso-8859-1"?>
<!-- Generator: Adobe Illustrator 18.0.0, SVG Export Plug-In . SVG Version: 6.00 Build 0)  -->
<!DOCTYPE svg PUBLIC "-//W3C//DTD SVG 1.1//EN" "http://www.w3.org/Graphics/SVG/1.1/DTD/svg11.dtd">
<svg version="1.1" id="Capa_1" xmlns="http://www.w3.org/2000/svg" xmlns:xlink="http://www.w3.org/1999/xlink" x="0px" y="0px"
	 viewBox="0 0 297.495 297.495" style="enable-background:new 0 0 297.495 297.495;" xml:space="preserve">
<g>
	<g id="XMLID_41_">
		<g>
			<polygon style="fill:#2980B9;" points="240.095,138.878 231.725,144.857 152.265,65.397 158.245,57.028 			"/>
			<path style="fill:#2980B9;" d="M152.445,169.818l-101.52,101.52c-3.36,3.36-7.82,5.21-12.57,5.21s-9.21-1.85-12.57-5.21
				c-3.36-3.36-5.21-7.82-5.21-12.57c0-4.75,1.85-9.22,5.21-12.57l101.52-101.52L152.445,169.818z M124.615,186.898
				c3.97-3.97,3.97-10.41,0-14.39c-3.98-3.97-10.42-3.97-14.39,0l-19.76,19.77c-3.98,3.97-3.98,10.41,0,14.38
				c1.98,1.99,4.58,2.98,7.19,2.98c2.6,0,5.2-0.99,7.19-2.98L124.615,186.898z"/>
			<path style="fill:#3498DB;" d="M219.135,153.848l-20.05,14.32c-6.6,4.71-15.55,3.97-21.28-1.76l-47.09-47.09
				c-5.73-5.73-6.47-14.68-1.76-21.28l14.32-20.05L219.135,153.848z"/>
			<path d="M287.075,98.707c5.62,0,10.17,4.55,10.17,10.17c0,5.61-4.55,10.17-10.17,10.17h-19.76c-5.62,0-10.18-4.56-10.18-10.17
				c0-5.62,4.56-10.17,10.18-10.17H287.075z"/>
			<path d="M290.505,62.298c2.65,4.96,0.78,11.12-4.17,13.77l-25.76,13.77c-1.53,0.82-3.17,1.21-4.79,1.21
				c-3.63,0-7.14-1.95-8.97-5.38c-2.65-4.95-0.79-11.11,4.17-13.76l25.75-13.78C281.695,55.478,287.855,57.347,290.505,62.298z"/>
			<path d="M272.855,24.267c3.97,3.97,3.97,10.41,0,14.38l-29.65,29.65c-1.98,1.99-4.59,2.98-7.19,2.98s-5.21-0.99-7.19-2.98
				c-3.98-3.97-3.98-10.41,0-14.38l29.64-29.65C262.445,20.298,268.885,20.298,272.855,24.267z"/>
			<path d="M262.975,132.977c2.11,2.12,3.19,5.05,2.94,8.03c-0.24,2.98-1.79,5.7-4.22,7.44l-50.78,36.27
				c-6.49,4.63-13.99,6.9-21.44,6.9c-7.95,0-15.85-2.59-22.41-7.64l-101.75,101.75c-7.43,7.43-17.2,11.15-26.96,11.15
				s-19.53-3.72-26.96-11.15c-14.86-14.87-14.86-39.05,0-53.92l101.74-101.74c-9.8-12.73-10.3-30.46-0.73-43.86l36.27-50.78
				c1.74-2.43,4.46-3.98,7.44-4.22c2.98-0.24,5.92,0.83,8.03,2.94L262.975,132.977z M231.725,144.857l8.37-5.98l-81.85-81.85
				l-5.98,8.37L231.725,144.857z M199.085,168.167l20.05-14.32l-75.86-75.86l-14.32,20.05c-4.71,6.6-3.97,15.55,1.76,21.28
				l47.09,47.09C183.535,172.137,192.485,172.878,199.085,168.167z M50.925,271.337l101.52-101.52l-25.14-25.14l-101.52,101.52
				c-3.36,3.35-5.21,7.82-5.21,12.57c0,4.75,1.85,9.21,5.21,12.57c3.36,3.36,7.82,5.21,12.57,5.21S47.565,274.698,50.925,271.337z"
				/>
			<path d="M234.825,6.617c4.95,2.65,6.82,8.81,4.17,13.77l-13.78,25.75c-1.83,3.43-5.34,5.38-8.98,5.38
				c-1.61,0-3.26-0.39-4.78-1.21c-4.96-2.65-6.83-8.81-4.18-13.76l13.78-25.76C223.705,5.838,229.865,3.967,234.825,6.617z"/>
			<path d="M199.165,10.797v19.76c0,5.62-4.55,10.17-10.17,10.17c-5.62,0-10.17-4.55-10.17-10.17v-19.76
				c0-5.62,4.55-10.18,10.17-10.18C194.615,0.618,199.165,5.177,199.165,10.797z"/>
			<path d="M124.615,172.508c3.97,3.98,3.97,10.42,0,14.39l-19.77,19.76c-1.99,1.99-4.59,2.98-7.19,2.98
				c-2.61,0-5.21-0.99-7.19-2.98c-3.98-3.97-3.98-10.41,0-14.38l19.76-19.77C114.195,168.538,120.635,168.538,124.615,172.508z"/>
		</g>
		<g>
		</g>
	</g>
</g>
<g>
</g>
<g>
</g>
<g>
</g>
<g>
</g>
<g>
</g>
<g>
</g>
<g>
</g>
<g>
</g>
<g>
</g>
<g>
</g>
<g>
</g>
<g>
</g>
<g>
</g>
<g>
</g>
<g>
</g>
</svg>
