<?xml version="1.0" encoding="iso-8859-1"?>
<!-- Generator: Adobe Illustrator 19.0.0, SVG Export Plug-In . SVG Version: 6.00 Build 0)  -->
<svg version="1.1" id="Layer_1" xmlns="http://www.w3.org/2000/svg" xmlns:xlink="http://www.w3.org/1999/xlink" x="0px" y="0px"
	 viewBox="0 0 504.446 504.446" style="enable-background:new 0 0 504.446 504.446;" xml:space="preserve">
<g transform="translate(1 1)">
	<g>
		<path style="fill:#FFDD09;" d="M317.951,494.633h134.295V326.764H317.951V494.633z"/>
		<path style="fill:#FFDD09;" d="M452.246,219.328v-60.433H317.951v60.433c13.43,4.197,27.698,6.715,41.967,6.715h4.197
			l-12.59,25.18l12.59,25.18h-4.197c-14.269,0-28.538,2.518-41.967,6.715v43.646h134.295v-43.646
			c-13.43-4.197-27.698-6.715-41.967-6.715h-4.197l12.59-25.18l-12.59-25.18h4.197C424.548,226.043,438.816,223.525,452.246,219.328
			"/>
		<path style="fill:#FFDD09;" d="M317.951,158.895h134.295V7.813H317.951V158.895z"/>
	</g>
	<path style="fill:#FD9808;" d="M435.459,494.633h16.787V7.813h-16.787V494.633z"/>
	<path style="fill:#FFFFFF;" d="M317.951,494.633h16.787V7.813h-16.787V494.633z"/>
	<g>
		<path style="fill:#FCC309;" d="M351.525,251.223l12.59-25.18h-4.197c-21.823,0-43.646-5.036-63.79-15.108
			c-9.233-5.036-20.144,2.518-20.144,12.59v55.397c0,10.072,10.911,16.787,20.144,12.59c20.144-10.072,41.967-15.108,63.79-15.108
			h4.197L351.525,251.223z"/>
		<path style="fill:#FCC309;" d="M418.672,251.223l-12.59,25.18h4.197c21.823,0,43.646,5.036,63.79,15.108
			c9.233,5.036,20.144-2.518,20.144-12.59v-55.397c0-10.072-10.911-16.787-20.144-12.59c-20.144,10.072-41.967,15.108-63.79,15.108
			h-4.197L418.672,251.223z"/>
	</g>
	<path style="fill:#FD9808;" d="M474.069,210.934c-0.839,0.839-1.679,0.839-2.518,0.839c3.357,2.518,5.875,6.715,5.875,11.751
		v55.397c0,5.036-2.518,8.393-5.875,10.911c0.839,0,1.679,0.839,2.518,0.839c9.233,5.036,20.144-2.518,20.144-12.59v-55.397
		C494.213,213.452,483.302,206.738,474.069,210.934"/>
	<path style="fill:#FFFFFF;" d="M296.128,210.934c0.839,0.839,1.679,0.839,2.518,0.839c-3.357,2.518-5.875,6.715-5.875,11.751
		v55.397c0,5.036,2.518,8.393,5.875,10.911c-0.839,0-1.679,0.839-2.518,0.839c-9.233,5.036-20.144-2.518-20.144-12.59v-55.397
		C275.984,213.452,286.895,206.738,296.128,210.934"/>
	<path style="fill:#FD9808;" d="M418.672,251.223l-16.787,33.574h-33.574l-16.787-33.574l16.787-33.574h33.574L418.672,251.223z"/>
	<path style="fill:#54C9FD;" d="M351.525,100.141h67.148V41.387h-67.148V100.141z"/>
	<path style="fill:#33A9F8;" d="M393.492,100.141h25.18V41.387h-25.18V100.141z"/>
	<g>
		<path style="fill:#FFDD09;" d="M49.361,494.633h134.295V326.764H49.361V494.633z"/>
		<path style="fill:#FFDD09;" d="M183.656,219.328v-60.433H49.361v60.433c13.43,4.197,27.698,6.715,41.967,6.715h4.197l-12.59,25.18
			l12.59,25.18h-4.197c-14.269,0-28.538,2.518-41.967,6.715v43.646h134.295v-43.646c-13.43-4.197-27.698-6.715-41.967-6.715h-4.197
			l12.59-25.18l-12.59-25.18h4.197C155.957,226.043,170.226,223.525,183.656,219.328"/>
		<path style="fill:#FFDD09;" d="M49.361,158.895h134.295V7.813H49.361V158.895z"/>
	</g>
	<path style="fill:#FD9808;" d="M166.869,494.633h16.787V7.813h-16.787V494.633z"/>
	<path style="fill:#FFFFFF;" d="M49.361,494.633h16.787V7.813H49.361V494.633z"/>
	<g>
		<path style="fill:#FCC309;" d="M82.934,251.223l12.59-25.18h-4.197c-21.823,0-43.646-5.036-63.79-15.108
			c-9.233-5.036-20.144,1.679-20.144,12.59v55.397c0,10.072,10.911,16.787,20.144,12.59c20.144-10.072,41.967-15.108,63.79-15.108
			h4.197L82.934,251.223z"/>
		<path style="fill:#FCC309;" d="M150.082,251.223l-12.59,25.18h4.197c21.823,0,43.646,5.036,63.79,15.108
			c9.233,5.036,20.144-2.518,20.144-12.59v-55.397c0-10.072-10.911-16.787-20.144-12.59c-20.144,10.072-41.967,15.108-63.79,15.108
			h-4.197L150.082,251.223z"/>
	</g>
	<path style="fill:#FD9808;" d="M205.479,210.934c-0.839,0.839-1.679,0.839-2.518,0.839c3.357,2.518,5.875,6.715,5.875,11.751
		v55.397c0,5.036-2.518,8.393-5.875,10.911c0.839,0,1.679,0.839,2.518,0.839c9.233,5.036,20.144-2.518,20.144-12.59v-55.397
		C225.623,213.452,214.711,206.738,205.479,210.934"/>
	<path style="fill:#FFFFFF;" d="M27.538,210.934c0.839,0.839,1.679,0.839,2.518,0.839c-3.357,3.357-5.875,7.554-5.875,11.751v55.397
		c0,5.036,2.518,8.393,5.875,10.911c-0.839,0-1.679,0.839-2.518,0.839c-9.233,5.875-20.144-0.839-20.144-11.751v-55.397
		C7.393,213.452,18.305,206.738,27.538,210.934"/>
	<path style="fill:#FD9808;" d="M150.082,251.223l-16.787,33.574H99.721l-16.787-33.574l16.787-33.574h33.574L150.082,251.223z"/>
	<path style="fill:#54C9FD;" d="M82.934,100.141h67.148V41.387H82.934V100.141z"/>
	<path style="fill:#33A9F8;" d="M124.902,100.141h25.18V41.387h-25.18V100.141z"/>
	<path d="M183.656,167.289H49.361c-5.036,0-8.393-3.357-8.393-8.393V7.813c0-5.036,3.357-8.393,8.393-8.393h134.295
		c5.036,0,8.393,3.357,8.393,8.393v151.082C192.049,163.931,188.692,167.289,183.656,167.289z M57.754,150.502h117.508V16.207
		H57.754V150.502z"/>
	<path d="M183.656,503.026H49.361c-5.036,0-8.393-3.357-8.393-8.393V326.764c0-5.036,3.357-8.393,8.393-8.393h134.295
		c5.036,0,8.393,3.357,8.393,8.393v167.869C192.049,499.669,188.692,503.026,183.656,503.026z M57.754,486.239h117.508V335.157
		H57.754V486.239z"/>
	<path d="M150.082,108.534H82.934c-5.036,0-8.393-3.357-8.393-8.393V41.387c0-5.036,3.357-8.393,8.393-8.393h67.148
		c5.036,0,8.393,3.357,8.393,8.393v58.754C158.475,105.177,155.118,108.534,150.082,108.534z M91.328,91.748h50.361V49.78H91.328
		V91.748z"/>
	<path d="M133.295,293.19H99.721c-3.357,0-5.875-1.679-7.554-4.197L75.38,255.42c-0.839-2.518-0.839-5.036,0-7.554l16.787-33.574
		c1.679-2.518,4.197-5.036,7.554-5.036h33.574c3.357,0,5.875,1.679,7.554,5.036l16.787,33.574c0.839,2.518,0.839,5.036,0,7.554
		l-16.787,33.574C139.17,290.672,136.652,293.19,133.295,293.19z M104.757,276.403h23.502l12.59-25.18l-12.59-25.18h-23.502
		l-12.59,25.18L104.757,276.403z"/>
	<path d="M21.662,300.744c-4.197,0-8.393-0.839-11.751-3.357C3.197,293.19-1,286.475-1,278.921v-55.397
		c0-7.554,4.197-15.108,10.911-19.305s15.108-4.197,21.823-0.839c18.466,9.233,39.449,14.269,59.593,14.269h4.197
		c2.518,0,5.875,1.679,6.715,4.197c1.679,2.518,1.679,5.875,0,8.393l-10.072,20.984l10.911,20.984c1.679,2.518,0.839,5.875,0,8.393
		c-1.679,2.518-4.197,4.197-7.554,4.197h-4.197c-20.984,0-41.967,5.036-60.433,14.269C28.377,299.905,25.02,300.744,21.662,300.744z
		 M21.662,217.649c-1.679,0-2.518,0.839-3.357,0.839c-0.839,0-2.518,1.679-2.518,5.036v55.397c0,2.518,1.679,4.197,2.518,5.036
		s2.518,1.679,5.036,0c18.466-9.233,37.77-14.269,57.915-15.948l-6.715-12.59c-0.839-2.518-0.839-5.036,0-7.554l6.715-13.43
		c-20.144-0.839-40.289-6.715-58.754-15.948C23.341,217.649,22.502,217.649,21.662,217.649z"/>
	<path d="M212.193,301.584c-3.357,0-6.715-0.839-10.072-2.518c-18.466-9.233-39.449-14.269-60.433-14.269h-4.197
		c-2.518,0-5.875-1.679-6.715-4.197c-1.679-2.518-1.679-5.875,0-8.393l10.911-21.823L130.777,229.4
		c-1.679-2.518-0.839-5.875,0-8.393c1.679-2.518,4.197-4.197,7.554-4.197h3.357c20.984,0,41.128-5.036,60.433-14.269
		c6.715-3.357,15.108-3.357,21.823,0.839c6.715,4.197,10.911,10.911,10.911,19.305v55.397c0,7.554-4.197,15.108-10.911,19.305
		C219.748,299.905,215.551,301.584,212.193,301.584z M150.921,268.01c20.144,1.679,40.289,6.715,58.754,15.948
		c2.518,0.839,5.036,0,5.036,0s2.518-1.679,2.518-5.036v-55.397c0-2.518-1.679-4.197-2.518-5.036c-0.839-0.839-2.518-1.679-5.036,0
		c-18.466,9.233-37.77,14.269-57.915,15.948l6.715,12.59c0.839,2.518,0.839,5.036,0,7.554L150.921,268.01z"/>
	<path d="M183.656,335.157H49.361c-5.036,0-8.393-3.357-8.393-8.393v-44.485c0-3.357,2.518-6.715,5.875-8.393
		c11.751-3.357,23.502-5.875,35.252-6.715l-6.715-12.59c-0.839-2.518-0.839-5.036,0-7.554l6.715-13.43
		c-11.751-0.839-23.502-2.518-35.252-6.715c-3.357-0.839-5.875-4.197-5.875-7.554v-60.433c0-5.036,3.357-8.393,8.393-8.393h134.295
		c5.036,0,8.393,3.357,8.393,8.393v60.433c0,3.357-2.518,6.715-5.875,8.393c-11.751,3.357-23.502,5.875-35.252,6.715l6.715,12.59
		c0.839,2.518,0.839,5.036,0,7.554l-6.715,13.43c11.751,0.839,23.502,2.518,35.252,6.715c3.357,0.839,5.875,4.197,5.875,8.393
		v43.646C192.049,331.8,188.692,335.157,183.656,335.157z M57.754,318.37h117.508v-29.377c-10.911-2.518-22.662-4.197-33.574-4.197
		h-4.197c-2.518,0-5.875-1.679-6.715-4.197c-0.839-2.518-1.679-5.875,0-8.393l10.911-21.823L130.777,229.4
		c-1.679-2.518-0.839-5.875,0-8.393c1.679-2.518,4.197-4.197,7.554-4.197h3.357c11.751,0,22.662-1.679,33.574-4.197v-45.325H57.754
		v45.325c10.911,2.518,22.662,4.197,33.574,4.197h4.197c2.518,0,5.875,1.679,6.715,4.197c1.679,2.518,1.679,5.875,0,8.393
		l-10.072,21.823l10.911,20.984c1.679,2.518,0.839,5.875,0,8.393c-1.679,2.518-4.197,4.197-7.554,4.197h-4.197
		c-11.751,0-22.662,1.679-33.574,4.197V318.37z M183.656,219.328L183.656,219.328L183.656,219.328z"/>
	<path d="M452.246,167.289H317.951c-5.036,0-8.393-3.357-8.393-8.393V7.813c0-5.036,3.357-8.393,8.393-8.393h134.295
		c5.036,0,8.393,3.357,8.393,8.393v151.082C460.639,163.931,457.282,167.289,452.246,167.289z M326.344,150.502h117.508V16.207
		H326.344V150.502z"/>
	<path d="M452.246,503.026H317.951c-5.036,0-8.393-3.357-8.393-8.393V326.764c0-5.036,3.357-8.393,8.393-8.393h134.295
		c5.036,0,8.393,3.357,8.393,8.393v167.869C460.639,499.669,457.282,503.026,452.246,503.026z M326.344,486.239h117.508V335.157
		H326.344V486.239z"/>
	<path d="M418.672,108.534h-67.148c-5.036,0-8.393-3.357-8.393-8.393V41.387c0-5.036,3.357-8.393,8.393-8.393h67.148
		c5.036,0,8.393,3.357,8.393,8.393v58.754C427.066,105.177,423.708,108.534,418.672,108.534z M359.918,91.748h50.361V49.78h-50.361
		V91.748z"/>
	<path d="M401.885,293.19h-33.574c-3.357,0-5.875-1.679-7.554-4.197L343.97,255.42c-0.839-2.518-0.839-5.036,0-7.554l16.787-33.574
		c1.679-2.518,4.197-5.036,7.554-5.036h33.574c3.357,0,5.875,1.679,7.554,5.036l16.787,33.574c0.839,2.518,0.839,5.036,0,7.554
		l-16.787,33.574C407.761,290.672,405.243,293.19,401.885,293.19z M373.348,276.403h23.502l12.59-25.18l-12.59-25.18h-23.502
		l-12.59,25.18L373.348,276.403z"/>
	<path d="M290.252,300.744c-4.197,0-8.393-0.839-11.751-3.357c-6.715-4.197-10.911-10.911-10.911-18.466v-55.397
		c0-7.554,4.197-15.108,10.911-19.305s15.108-4.197,21.823-0.839c18.466,9.233,39.449,14.269,60.433,14.269h4.197
		c2.518,0,5.875,1.679,6.715,4.197c1.679,2.518,1.679,5.875,0,8.393l-10.911,20.984l10.911,20.984c1.679,2.518,0.839,5.875,0,8.393
		c-1.679,2.518-4.197,4.197-7.554,4.197h-4.197c-20.984,0-41.967,5.036-60.433,14.269
		C296.967,299.905,293.61,300.744,290.252,300.744z M290.252,217.649c-1.679,0-2.518,0.839-3.357,0.839
		c-0.839,0.839-2.518,1.679-2.518,5.036v55.397c0,2.518,1.679,4.197,2.518,5.036c0.839,0.839,2.518,1.679,5.036,0
		c18.466-9.233,37.77-14.269,57.915-15.948l-6.715-12.59c-0.839-2.518-0.839-5.036,0-7.554l6.715-13.43
		c-20.144-1.679-40.289-6.715-58.754-15.948C291.931,217.649,291.092,217.649,290.252,217.649z"/>
	<path d="M480.784,301.584c-3.357,0-6.715-0.839-10.072-2.518c-18.466-9.233-39.449-14.269-60.433-14.269h-4.197
		c-2.518,0-5.875-1.679-6.715-4.197c-0.839-2.518-1.679-5.875,0-8.393l10.911-21.823L399.367,229.4
		c-1.679-2.518-0.839-5.875,0-8.393c1.679-2.518,4.197-4.197,7.554-4.197h3.357c20.984,0,41.128-5.036,60.433-14.269
		c6.715-3.357,15.108-3.357,21.823,0.839c6.715,4.197,10.911,10.911,10.911,19.305v55.397c0,7.554-4.197,15.108-10.911,19.305
		C488.338,299.905,484.141,301.584,480.784,301.584z M419.511,268.01c20.144,1.679,40.289,6.715,58.754,15.948
		c2.518,0.839,5.036,0,5.036,0c0.839-0.839,2.518-1.679,2.518-5.036v-55.397c0-2.518-1.679-4.197-2.518-5.036
		c-0.839-0.839-2.518-1.679-5.036,0c-18.466,9.233-37.77,14.269-57.915,15.948l6.715,12.59c0.839,2.518,0.839,5.036,0,7.554
		L419.511,268.01z"/>
	<path d="M452.246,335.157H317.951c-5.036,0-8.393-3.357-8.393-8.393v-44.485c0-3.357,2.518-6.715,5.875-8.393
		c11.751-3.357,23.502-5.875,35.252-6.715l-6.715-12.59c-0.839-2.518-0.839-5.036,0-7.554l6.715-13.43
		c-11.751-0.839-23.502-2.518-35.252-6.715c-3.357-0.839-5.875-4.197-5.875-8.393v-59.593c0-5.036,3.357-8.393,8.393-8.393h134.295
		c5.036,0,8.393,3.357,8.393,8.393v60.433c0,3.357-2.518,6.715-5.875,8.393c-11.751,3.357-23.502,5.875-35.252,6.715l6.715,12.59
		c0.839,2.518,0.839,5.036,0,7.554l-6.715,13.43c11.751,0.839,23.502,2.518,35.252,6.715c3.357,0.839,5.875,4.197,5.875,8.393
		v43.646C460.639,331.8,457.282,335.157,452.246,335.157z M326.344,318.37h117.508v-29.377c-10.911-2.518-22.662-4.197-33.574-4.197
		h-4.197c-2.518,0-5.875-1.679-6.715-4.197c-0.839-2.518-1.679-5.875,0-8.393l10.911-21.823L399.367,229.4
		c-1.679-2.518-0.839-5.875,0-8.393c1.679-2.518,4.197-4.197,7.554-4.197h3.357c11.751,0,22.662-1.679,33.574-4.197v-45.325H326.344
		v45.325c10.911,2.518,22.662,4.197,33.574,4.197h4.197c2.518,0,5.875,1.679,6.715,4.197c1.679,2.518,1.679,5.875,0,8.393
		l-10.072,21.823l10.911,20.984c1.679,2.518,0.839,5.875,0,8.393c-1.679,2.518-4.197,4.197-7.554,4.197h-4.197
		c-11.751,0-22.662,1.679-33.574,4.197V318.37z M452.246,219.328L452.246,219.328L452.246,219.328z"/>
</g>
<g>
</g>
<g>
</g>
<g>
</g>
<g>
</g>
<g>
</g>
<g>
</g>
<g>
</g>
<g>
</g>
<g>
</g>
<g>
</g>
<g>
</g>
<g>
</g>
<g>
</g>
<g>
</g>
<g>
</g>
</svg>
