<svg height="64" viewBox="0 0 64 64" width="64" xmlns="http://www.w3.org/2000/svg"><path d="m7.5 27.79 29 29v-10.58l-29-29z" fill="#ba9bc9"/><path d="m55.79 35.5-29-29h-10.58l29 29z" fill="#65c8d0"/><path d="m18.79 16.5h-10.58l29 29h10.58z" fill="#65c8d0"/><path d="m19.35 15.65 25.15 25.14v-4.58l-29-29v8.29h3.5a.47.47 0 0 1 .35.15z" fill="#ba9bc9"/><path d="m45.5 41.79 3.85 3.86a.49.49 0 0 1 .15.35v1.5h7v-11h-11z" fill="#838bc5"/><path d="m37.5 46.5h11v11h-11z" fill="#838bc5"/><path d="m57.71 35.29-30-30a1 1 0 0 0 -.71-.29h-12a1 1 0 0 0 -1 1v9h-7a1 1 0 0 0 -1 1v12a1 1 0 0 0 .29.71l30 30a1 1 0 0 0 .71.29h12a1 1 0 0 0 1-1v-9h7a1 1 0 0 0 1-1v-12a1 1 0 0 0 -.29-.71zm-3.12-.29h-9.18l-28-28h9.18zm-45.18-18h9.18l28 28h-9.18zm6.59-8.59 28 28v3.18l-24.29-24.3a1 1 0 0 0 -.71-.29h-3zm-8 10 28 28v9.18l-28-28zm40 38.59h-10v-10h10zm8-10h-6v-1a1 1 0 0 0 -.29-.71l-3.71-3.7v-4.59h10z" fill="#f4ecce"/></svg>