<svg enable-background="new 0 0 1200 1200" height="1200" viewBox="0 0 1200 1200" width="1200" xmlns="http://www.w3.org/2000/svg"><path d="m719.57 272.035c18.461 0 35.451 3.565 50.975 10.698 46.078 23.193 73.285 67.272 73.631 116.424v338.573c-8.643 53.824-70.25 39.188-71.742 0v-319.693c-5.49-18.231-40.693-10.672-41.535 0v733.785c-8.951 74.928-105.773 52.934-108.242-1.258 0-149.778 0-299.558 0-449.334-6.191-28.982-46.936-15.813-47.829 1.259 1.728 149.353 1.259 298.715 1.259 448.075-9.656 74.543-106.007 55.47-108.243 1.258l-1.258-733.785c-5.643-17.838-38.263-10.996-39.019 0v319.693c-8.644 53.824-70.25 39.188-71.742 0v-338.573c.871-47.056 18.117-94.197 59.156-116.424 13.426-7.133 29.788-10.699 49.087-10.699 85.167.001 170.334.001 255.502.001zm-1.269-153.758c0 65.323-52.955 118.278-118.278 118.278-65.322 0-118.277-52.955-118.277-118.278-.001-65.322 52.954-118.277 118.275-118.277 65.325 0 118.28 52.955 118.28 118.277z"/></svg>