<?xml version="1.0" encoding="iso-8859-1"?>
<!-- Generator: Adobe Illustrator 19.0.0, SVG Export Plug-In . SVG Version: 6.00 Build 0)  -->
<svg version="1.1" id="Layer_1" xmlns="http://www.w3.org/2000/svg" xmlns:xlink="http://www.w3.org/1999/xlink" x="0px" y="0px"
	 viewBox="0 0 276.988 276.988" style="enable-background:new 0 0 276.988 276.988;" xml:space="preserve">
<g>
	<path style="fill:#FFFFFF;" d="M181.979,52.167h-86.97V37.209c0-16.408,13.301-29.709,29.709-29.709h27.551
		c16.408,0,29.709,13.301,29.709,29.709v14.958H181.979z"/>
	<polygon style="fill:#FFFFFF;" points="100.181,239.488 120.598,111.667 156.391,111.667 176.807,239.488 	"/>
	<path style="fill:#80D0E1;" d="M207.916,244.052L181.979,81.667h-86.97L69.072,244.052c-2.132,13.347,8.179,25.436,21.695,25.436
		h95.453C199.737,269.488,210.048,257.399,207.916,244.052z M100.181,239.488l20.416-127.821h35.793l20.417,127.821H100.181z"/>
	<path style="fill:#FFE49C;" d="M182.577,81.667H94.411c-8.146,0-14.75-6.604-14.75-14.75l0,0c0-8.146,6.604-14.75,14.75-14.75
		h88.167c8.146,0,14.75,6.604,14.75,14.75l0,0C197.327,75.063,190.724,81.667,182.577,81.667z"/>
	<g>
		<path style="fill:#414042;" d="M215.323,242.869L190.536,87.69c8.348-3.209,14.291-11.308,14.291-20.773
			c0-9.86-6.449-18.237-15.349-21.149v-8.559C189.479,16.692,172.787,0,152.27,0h-27.552c-20.517,0-37.209,16.692-37.209,37.209
			v8.559c-8.9,2.912-15.349,11.289-15.349,21.149c0,9.465,5.943,17.563,14.291,20.773L61.666,242.869
			c-2.861,17.909,10.99,34.119,29.101,34.119h95.453C204.357,276.988,218.179,260.754,215.323,242.869z M102.509,37.209
			c0-12.247,9.963-22.209,22.209-22.209h27.552c12.246,0,22.209,9.963,22.209,22.209v7.458h-71.97V37.209z M94.411,59.667
			c9.609,0,78.751,0,88.167,0c3.998,0,7.25,3.252,7.25,7.25c0,3.997-3.252,7.25-7.25,7.25c-9.416,0-78.558,0-88.167,0
			c-3.998,0-7.25-3.253-7.25-7.25C87.161,62.919,90.413,59.667,94.411,59.667z M186.221,261.988H90.768
			c-8.903,0-15.692-7.969-14.289-16.753l24.928-156.068h74.176l24.928,156.068C201.915,254.029,195.114,261.988,186.221,261.988z"/>
		<path style="fill:#414042;" d="M163.797,110.484c-0.581-3.639-3.721-6.317-7.406-6.317h-35.793c-3.686,0-6.825,2.678-7.406,6.317
			L92.775,238.305c-0.727,4.553,2.795,8.683,7.406,8.683h76.626c4.611,0,8.133-4.129,7.406-8.683L163.797,110.484z M108.974,231.988
			l18.021-112.821h22.999l18.021,112.821H108.974z"/>
		<circle style="fill:#414042;" cx="129.282" cy="29.833" r="5"/>
		<circle style="fill:#414042;" cx="147.706" cy="29.833" r="5"/>
	</g>
</g>
<g>
</g>
<g>
</g>
<g>
</g>
<g>
</g>
<g>
</g>
<g>
</g>
<g>
</g>
<g>
</g>
<g>
</g>
<g>
</g>
<g>
</g>
<g>
</g>
<g>
</g>
<g>
</g>
<g>
</g>
</svg>
