<?xml version="1.0" encoding="iso-8859-1"?>
<!-- Generator: Adobe Illustrator 19.0.0, SVG Export Plug-In . SVG Version: 6.00 Build 0)  -->
<svg version="1.1" id="Layer_1" xmlns="http://www.w3.org/2000/svg" xmlns:xlink="http://www.w3.org/1999/xlink" x="0px" y="0px"
	 viewBox="0 0 512.003 512.003" style="enable-background:new 0 0 512.003 512.003;" xml:space="preserve">
<path style="fill:#FFDAAA;" d="M334.505,231.86h-33.727c17.198,0,31.269-14.071,31.269-31.269l0,0
	c0-17.198-14.071-31.269-31.269-31.269h-23.654c17.198,0,31.269-14.071,31.269-31.269l0,0c0-17.198-14.071-31.269-31.269-31.269
	h-11.791c7.03-3.559,11.917-11.31,11.917-20.324C277.25,74.08,256.713,0,256.713,0s-20.536,74.079-20.536,86.459
	c0,9.015,4.887,16.766,11.917,20.324h-10.745c-17.198,0-31.269,14.071-31.269,31.269l0,0c0,17.198,14.071,31.269,31.269,31.269
	h-23.654c-17.198,0-31.269,14.071-31.269,31.269l0,0c0,17.198,14.071,31.269,31.269,31.269h-37.409
	c-17.198,0-31.269,14.071-31.269,31.269l0,0c0,17.198,14.071,31.269,31.269,31.269h16.708h127.518h13.994
	c17.198,0,31.269-14.071,31.269-31.269l0,0C365.775,245.931,351.703,231.86,334.505,231.86z"/>
<g>
	<path style="fill:#FFC477;" d="M255.747,86.461c0,8.035-3.888,15.058-9.711,19.012c0.71,0.481,1.442,0.926,2.205,1.313h7.381
		c17.198,0,31.269,14.071,31.269,31.268c0,17.198-14.071,31.269-31.269,31.269h21.65c17.198,0,31.269-14.071,31.269-31.269
		s-14.071-31.268-31.269-31.268h-11.79c7.03-3.559,11.917-11.309,11.917-20.324c0-12.379-20.536-86.459-20.536-86.459
		s-5.513,19.885-10.826,40.771C250.978,60.2,255.747,80.495,255.747,86.461z"/>
	<path style="fill:#FFC477;" d="M279.276,169.322c17.198,0,31.268,14.071,31.268,31.269s-14.071,31.268-31.268,31.268h21.65
		c17.198,0,31.268-14.071,31.268-31.268c0-17.198-14.071-31.269-31.268-31.269H279.276z"/>
	<path style="fill:#FFC477;" d="M334.654,231.86h-21.65c17.198,0,31.268,14.071,31.268,31.268l0,0
		c0,17.198-14.071,31.268-31.268,31.268h7.656h13.994c17.198,0,31.268-14.071,31.268-31.268l0,0
		C365.923,245.931,351.851,231.86,334.654,231.86z"/>
	<path style="fill:#FFC477;" d="M318.869,474.692c28.992-19.735,48.031-53.003,48.031-90.718
		c0-60.566-49.098-109.664-109.664-109.664s-106.38,49.187-109.664,109.664c-1.392,25.625,4.146,60.702,48.035,90.718H318.869z"/>
</g>
<path style="opacity:0.04;fill:#663A00;enable-background:new    ;" d="M298.889,282.47c23.335,20.11,38.108,49.879,38.108,83.101
	c0,37.716-19.039,70.983-48.031,90.718H173.829c5.943,6.258,13.135,12.431,21.866,18.402h123.262
	c28.992-19.735,48.031-53.003,48.031-90.718C366.988,338.121,338.843,298.848,298.889,282.47z"/>
<g>
	<path style="fill:#EE8700;" d="M337.267,389.258c-4.331,0-7.842-3.51-7.842-7.842c0-39.819-32.395-72.215-72.214-72.215
		c-4.331,0-7.842-3.51-7.842-7.842s3.51-7.842,7.842-7.842c48.466,0,87.896,39.431,87.896,87.897
		C345.108,385.748,341.598,389.258,337.267,389.258z"/>
	<path style="fill:#EE8700;" d="M259.431,390.261c0.74,0.218,1.486,0.322,2.219,0.322c3.387,0,6.512-2.213,7.518-5.626
		c1.224-4.153-1.15-8.514-5.305-9.738c-51.491-15.178-68.414-77.403-68.577-78.029c-0.221-0.845-0.578-1.618-1.032-2.311
		c-4.517,3.325-8.769,7.001-12.731,10.988C186.818,322.143,207.703,375.015,259.431,390.261z"/>
</g>
<path style="fill:#FFDAAA;" d="M310.583,402.999c-20.546-22.044-53.347-30.07-53.347-30.07s-69.537,22.932-69.537,69.537
	c0,16.916,6.045,32.416,16.087,44.472c12.755,15.313,31.962,25.065,53.45,25.065c13.419,0,25.95-3.801,36.575-10.385
	c19.785-12.259,32.962-34.167,32.962-59.152C326.773,426.016,319.952,413.05,310.583,402.999z"/>
<g>
	<path style="opacity:0.04;fill:#663A00;enable-background:new    ;" d="M199.793,457.5c0-46.604,69.537-69.537,69.537-69.537
		s29.369,7.197,49.934,26.649c-2.466-4.24-5.413-8.108-8.68-11.614c-20.546-22.044-53.347-30.07-53.347-30.07
		S187.7,395.86,187.7,442.465c0,16.916,6.045,32.416,16.086,44.472c1.807,2.169,3.757,4.214,5.811,6.147
		C203.379,482.673,199.793,470.508,199.793,457.5z"/>
	<path style="opacity:0.04;fill:#663A00;enable-background:new    ;" d="M310.583,402.999c1.202,9.19,6.394,63.568-35.806,83.964
		c-35.633,17.221-61.185,5.994-70.991-0.025c12.755,15.313,31.962,25.065,53.45,25.065c13.419,0,25.95-3.801,36.575-10.385
		c19.784-12.259,32.962-34.167,32.962-59.152C326.773,426.016,319.952,413.05,310.583,402.999z"/>
</g>
<g>
</g>
<g>
</g>
<g>
</g>
<g>
</g>
<g>
</g>
<g>
</g>
<g>
</g>
<g>
</g>
<g>
</g>
<g>
</g>
<g>
</g>
<g>
</g>
<g>
</g>
<g>
</g>
<g>
</g>
</svg>
