<?xml version="1.0" encoding="iso-8859-1"?>
<!-- Uploaded to: SVG Repo, www.svgrepo.com, Generator: SVG Repo Mixer Tools -->
<svg version="1.1" id="Layer_1" xmlns="http://www.w3.org/2000/svg" xmlns:xlink="http://www.w3.org/1999/xlink" 
	 viewBox="0 0 512.009 512.009" xml:space="preserve">
<path style="fill:#D7D7D7;" d="M452.675,150.13l-24.071-24.071l-42.646-42.646l-24.071-24.071l7.514-7.514
	c25.03-25.03,65.758-25.03,90.789,0c25.03,25.03,25.03,65.757,0,90.788L452.675,150.13z"/>
<path style="fill:#B0B0B0;" d="M452.675,150.13l-24.071-24.071l-21.323-21.323c0,0,41.296-41.296,52.909-52.909
	c25.03,25.03,25.03,65.757,0,90.788L452.675,150.13z"/>
<rect x="209.46" y="60.864" transform="matrix(-0.7071 -0.7071 0.7071 -0.7071 365.5538 572.6635)" style="fill:#D7D7D7;" width="183.84" height="299.517"/>
<rect x="287.921" y="93.365" transform="matrix(-0.7071 -0.7071 0.7071 -0.7071 398.0509 651.1252)" style="fill:#B0B0B0;" width="91.914" height="299.517"/>
<path style="fill:#D7D7D7;" d="M79.61,512.009l-79.6-79.6l143.643-143.643l79.6,79.6L79.61,512.009z"/>
<path style="fill:#B0B0B0;" d="M79.61,512.009l-39.8-39.8l143.643-143.643l39.8,39.8L79.61,512.009z"/>
<rect x="276.184" y="87.708" transform="matrix(-0.7071 -0.7071 0.7071 -0.7071 621.2011 466.7661)" style="fill:#F4DA49;" width="262.175" height="34.041"/>
<rect x="388.077" y="134.052" transform="matrix(-0.7071 -0.7071 0.7071 -0.7071 667.5504 578.6528)" style="fill:#E69824;" width="131.082" height="34.041"/>
<rect x="52.369" y="294.521" transform="matrix(-0.7071 -0.7071 0.7071 -0.7071 80.8499 690.6161)" style="fill:#F4DA49;" width="262.175" height="68.084"/>
<rect x="164.255" y="340.858" transform="matrix(-0.7071 -0.7071 0.7071 -0.7071 127.1913 802.4838)" style="fill:#E69824;" width="131.082" height="68.084"/>
<g>
	<path style="fill:#6F6F6F;" d="M252.646,95.292L252.646,95.292c4.871-8.04,15.338-10.608,23.377-5.737l179.779,108.929
		c8.039,4.871,10.607,15.338,5.737,23.376l0,0c-4.871,8.04-15.338,10.608-23.377,5.737L258.383,118.668
		C250.343,113.797,247.774,103.331,252.646,95.292z"/>
	<path style="fill:#6F6F6F;" d="M196.939,147.349L196.939,147.349c4.871-8.04,15.338-10.608,23.377-5.738L400.095,250.54
		c8.039,4.871,10.607,15.337,5.737,23.376l0,0c-4.871,8.04-15.338,10.608-23.377,5.737L202.676,170.724
		C194.636,165.854,192.067,155.388,196.939,147.349z"/>
	<path style="fill:#6F6F6F;" d="M141.232,199.405L141.232,199.405c4.872-8.04,15.338-10.607,23.377-5.737l179.778,108.93
		c8.039,4.871,10.607,15.338,5.737,23.377l0,0c-4.871,8.039-15.338,10.607-23.377,5.737l-179.778-108.93
		C138.93,217.91,136.362,207.444,141.232,199.405z"/>
	
		<rect x="33.601" y="405.108" transform="matrix(-0.7071 -0.7071 0.7071 -0.7071 -145.0433 784.1783)" style="fill:#6F6F6F;" width="112.572" height="34.041"/>
</g>
<g>
	
		<rect x="81.641" y="425.005" transform="matrix(-0.7071 -0.7071 0.7071 -0.7071 -125.1464 832.2134)" style="fill:#444444;" width="56.285" height="34.041"/>
	<path style="fill:#444444;" d="M326.747,331.712c8.04,4.872,18.505,2.303,23.377-5.737l0,0c4.872-8.039,2.303-18.505-5.737-23.377
		l-84.045-50.924l-24.784,24.784L326.747,331.712z"/>
	<path style="fill:#444444;" d="M405.831,273.918L405.831,273.918c4.871-8.04,2.303-18.505-5.737-23.376l-86.317-52.3
		l-24.785,24.785l93.461,56.629C390.494,284.526,400.96,281.957,405.831,273.918z"/>
	<path style="fill:#444444;" d="M461.537,221.861L461.537,221.861c4.871-8.04,2.303-18.505-5.737-23.377l-88.589-53.678
		l-24.784,24.784l95.734,58.006C446.2,232.469,456.666,229.9,461.537,221.861z"/>
</g>
</svg>