<?xml version="1.0" encoding="iso-8859-1"?>
<!-- Generator: Adobe Illustrator 19.0.0, SVG Export Plug-In . SVG Version: 6.00 Build 0)  -->
<svg version="1.1" id="Layer_1" xmlns="http://www.w3.org/2000/svg" xmlns:xlink="http://www.w3.org/1999/xlink" x="0px" y="0px"
	 viewBox="0 0 496.159 496.159" style="enable-background:new 0 0 496.159 496.159;" xml:space="preserve">
<path style="fill:#DEFCF8;" d="M248.082,0.004C111.071,0.004,0,111.063,0,248.086c0,137.001,111.07,248.07,248.082,248.07
	c137.006,0,248.076-111.069,248.076-248.07C496.159,111.063,385.088,0.004,248.082,0.004z"/>
<path style="fill:#E9C29C;" d="M495.595,231.516C234.639,308.221,63.448,261.91,0.239,237.532
	c-0.146,3.501-0.238,7.017-0.238,10.554c0,137.001,111.07,248.07,248.082,248.07c137.006,0,248.076-111.069,248.076-248.07
	C496.159,242.516,495.956,236.995,495.595,231.516z"/>
<path style="fill:#535454;" d="M301.702,267.026c-1.165-23.421-25.499-40.005-54.397-38.011
	c-28.903,1.995-51.778,14.729-50.614,38.152c1.164,23.419,24.92,28.345,53.819,26.351
	C279.409,291.523,302.866,290.445,301.702,267.026z"/>
<path style="fill:#5F6060;" d="M243.598,238.471c-22.156-5.586-41.278,16.084-42.063,33.87
	C200.748,290.125,265.756,244.058,243.598,238.471z"/>
<path style="fill:#494949;" d="M78.504,225.162c-27.321-3.104-49.784-0.508-51.061,20.164
	c-1.277,20.671,20.223,33.662,47.545,36.766c27.321,3.102,49.658,2.554,50.935-18.117
	C127.705,235.104,105.827,228.263,78.504,225.162z"/>
<path style="fill:#5F6060;" d="M75.936,232.287c-19.634-10.844-40.658,2.578-44.127,17.656
	C28.338,265.022,95.567,243.131,75.936,232.287z"/>
<path style="fill:#565656;" d="M470.526,232.147c-2.599-21.093-24.454-22.805-50.566-18.051
	c-26.111,4.753-46.447,15.337-43.102,42.48c2.6,21.091,24.155,20.366,50.266,15.611
	C453.237,267.432,473.127,253.241,470.526,232.147z"/>
<path style="fill:#5F6060;" d="M417.221,223.036c-20.489-2.8-36.423,18.778-35.963,34.965
	C381.716,274.189,437.708,225.836,417.221,223.036z"/>
<g>
</g>
<g>
</g>
<g>
</g>
<g>
</g>
<g>
</g>
<g>
</g>
<g>
</g>
<g>
</g>
<g>
</g>
<g>
</g>
<g>
</g>
<g>
</g>
<g>
</g>
<g>
</g>
<g>
</g>
</svg>
