<?xml version="1.0" ?>
<!-- Uploaded to: SVG Repo, www.svgrepo.com, Generator: SVG Repo Mixer Tools -->
<svg width="800px" height="800px" viewBox="0 0 32 32" xmlns="http://www.w3.org/2000/svg">
<title/>
<g>
<path d="M1,20s.87-.54,2.37-1.26L1,14H6l2.66,2.66A37.87,37.87,0,0,1,13,15.59L14.64,11a1.5,1.5,0,0,1,1.41-1h4.9a1.5,1.5,0,0,1,1.41,1l1.69,4.65c4.72,1.3,6.65,4.3,6.91,6a16,16,0,1,0-30-.1Z" style="fill: #0bf"/>
<path d="M19,29A34.78,34.78,0,0,1,8.66,27.34L6.87,29.13A16,16,0,0,0,28.1,26.45C26.21,27.86,23.29,29,19,29Z" style="fill: #0bf"/>
<path d="M2.73,24.94c.15.22.32.43.48.64l.16-.32Z" style="fill: #0bf"/>
</g>
<path d="M1,24a37.64,37.64,0,0,0,18,5c9,0,12-5,12-7s-3-7-12-7A37.64,37.64,0,0,0,1,20Z" style="fill: none;stroke: #000000;stroke-linecap: round;stroke-linejoin: round;stroke-width: 2px"/>
<polyline points="8.52 16.52 6 14 1 14 3 18" style="fill: none;stroke: #000000;stroke-linecap: round;stroke-linejoin: round;stroke-width: 2px"/>
<polyline points="8.52 27.48 6 30 1 30 3 26" style="fill: none;stroke: #000000;stroke-linecap: round;stroke-linejoin: round;stroke-width: 2px"/>
<path d="M13.11,15.19,14.64,11a1.5,1.5,0,0,1,1.41-1h4.9a1.5,1.5,0,0,1,1.41,1l1.54,4.24" style="fill: none;stroke: #000000;stroke-linecap: round;stroke-linejoin: round;stroke-width: 2px"/>
<rect height="1" transform="translate(41 25) rotate(-180)" width="1" x="20" y="12"/>
<rect height="1" transform="translate(37 25) rotate(-180)" width="1" x="18" y="12"/>
<rect height="1" transform="translate(33 25) rotate(-180)" width="1" x="16" y="12"/>
<polyline points="18 9 18 2 20 2" style="fill: none;stroke: #000000;stroke-linecap: round;stroke-linejoin: round;stroke-width: 2px"/>
<circle cx="24" cy="22" r="1"/>
<circle cx="18" cy="22" r="1"/>
<circle cx="12" cy="22" r="1"/>
<path d="M20.61,7H21a4.37,4.37,0,0,0,3.5-1.54A4.37,4.37,0,0,0,28,7a4.55,4.55,0,0,0,3-1" style="fill: none;stroke: #000000;stroke-linecap: round;stroke-linejoin: round;stroke-width: 2px"/>
<path d="M1,7A4.11,4.11,0,0,0,3.5,5.45,4.32,4.32,0,0,0,7,7a4.37,4.37,0,0,0,3.5-1.54A4.37,4.37,0,0,0,14,7a5.19,5.19,0,0,0,1.42-.2" style="fill: none;stroke: #000000;stroke-linecap: round;stroke-linejoin: round;stroke-width: 2px"/>
</svg>